<svg version="1.2" baseProfile="tiny-ps" xmlns="http://www.w3.org/2000/svg" viewBox="0 0 1440 1440" width="25" height="25">
	<title>Yext_Seal_R_Large_White-ai</title>
	<style>
		tspan { white-space:pre }
		.shp0 { fill: #ffffff } 
	</style>
	<g id="Yext Seal Large">
		<g id="Seal">
			<path id="Circle" fill-rule="evenodd" class="shp0" d="M1440 720C1440 1117.64 1117.65 1440 720 1440C322.35 1440 0 1117.64 0 720C0 322.36 322.35 0 720 0C1117.65 0 1440 322.36 1440 720ZM1382.4 720C1382.4 354.17 1085.83 57.6 720 57.6C354.17 57.6 57.6 354.17 57.6 720C57.6 1085.83 354.17 1382.4 720 1382.4C1085.83 1382.4 1382.4 1085.83 1382.4 720Z" />
			<path id="T" class="shp0" d="M741.6 741.6L1058.4 741.6L1058.4 799.2L928.8 799.2L928.8 1058.4L871.2 1058.4L871.2 799.2L741.6 799.2L741.6 741.6Z" />
			<path id="X" class="shp0" d="M705.6 775.13L580.73 900L705.6 1024.87L664.87 1065.6L540 940.73L415.13 1065.6L374.4 1024.87L499.27 900L374.4 775.13L415.13 734.4L540 859.27L664.87 734.4L705.6 775.13Z" />
			<path id="E" fill-rule="evenodd" class="shp0" d="M734.4 536.4C734.4 446.93 806.93 374.4 896.4 374.4C953.4 374.4 1003.49 403.86 1032.36 448.37L990.2 490.53L850.53 630.2C864.38 636.98 879.94 640.8 896.4 640.8C954.06 640.8 1000.8 594.06 1000.8 536.4L1058.4 536.4C1058.4 625.87 985.87 698.4 896.4 698.4C806.93 698.4 734.4 625.87 734.4 536.4ZM792 536.4C792 556.64 797.78 575.52 807.75 591.52L951.51 447.76C935.52 437.79 916.64 432 896.4 432C838.74 432 792 478.74 792 536.4Z" />
			<path id="Y" class="shp0" d="M661.48 374.4L705.6 411.42L568.8 574.46L568.8 698.4L511.2 698.4L511.2 574.46L374.4 411.42L418.52 374.4L540 519.17L661.48 374.4Z" />
		</g>
	</g>
</svg>